<?xml version="1.0" standalone="no"?>
<!DOCTYPE svg PUBLIC "-//W3C//DTD SVG 20010904//EN"
 "http://www.w3.org/TR/2001/REC-SVG-20010904/DTD/svg10.dtd">
<svg version="1.0" xmlns="http://www.w3.org/2000/svg"
 width="1920.000000pt" height="1920.000000pt" viewBox="0 0 1920.000000 1920.000000"
 preserveAspectRatio="xMidYMid meet">

<g transform="translate(0.000000,1920.000000) scale(0.100000,-0.100000)"
fill="#000000" stroke="none">
<path d="M9320 18121 c-234 -258 -428 -470 -432 -470 -5 -1 -225 177 -490 396
-266 218 -488 400 -494 404 -6 5 -125 -188 -329 -537 -175 -300 -324 -548
-330 -550 -6 -3 -262 126 -570 286 -308 159 -562 286 -566 282 -4 -4 -96 -276
-205 -604 -109 -329 -203 -598 -209 -598 -5 0 -283 76 -617 168 l-607 168 -5
-25 c-3 -14 -35 -300 -72 -636 -36 -335 -67 -611 -68 -612 0 -1 -287 16 -636
37 -349 21 -637 36 -639 34 -2 -2 24 -287 58 -635 35 -347 61 -632 59 -635 -3
-2 -284 -46 -626 -97 -342 -52 -625 -97 -628 -100 -4 -4 79 -277 185 -608 106
-331 189 -605 184 -610 -4 -4 -274 -107 -600 -229 l-591 -222 18 -31 c10 -18
145 -255 300 -527 155 -272 291 -509 301 -526 l18 -30 -539 -345 c-297 -189
-540 -346 -540 -349 1 -3 192 -219 426 -480 l424 -475 -457 -450 -457 -451
355 -260 c194 -144 426 -314 514 -378 88 -65 159 -122 157 -127 -2 -8 -550
-843 -663 -1010 l-37 -55 584 -264 c515 -232 584 -265 578 -282 -3 -10 -108
-279 -233 -598 -213 -540 -226 -579 -207 -583 12 -3 110 -24 219 -48 108 -24
197 -46 197 -50 0 -4 -71 -44 -157 -90 -257 -133 -772 -423 -723 -406 8 3 80
33 160 67 312 133 1120 433 1550 575 113 37 207 69 208 71 2 1 -14 29 -36 61
-70 103 -217 344 -294 483 -532 954 -839 1995 -908 3080 -13 212 -13 688 0
900 153 2408 1493 4581 3610 5852 763 458 1673 806 2523 963 80 15 97 22 165
72 238 170 545 342 1133 635 390 194 449 227 583 322 143 103 176 121 159 92
-4 -8 -126 -137 -270 -287 -278 -292 -383 -408 -525 -584 l-88 -110 402 -6
c394 -7 523 -14 798 -45 1781 -201 3409 -993 4651 -2261 1236 -1263 1968
-2898 2079 -4643 13 -212 13 -688 0 -900 -83 -1299 -516 -2559 -1246 -3626
l-83 -122 77 -28 c402 -145 964 -387 1583 -682 152 -73 279 -132 282 -132 57
0 -220 198 -546 390 -87 52 -162 101 -166 109 -23 46 -341 1065 -334 1072 4 4
274 107 600 229 l591 222 -18 31 c-10 18 -145 255 -300 527 -155 272 -291 509
-301 526 l-18 30 539 345 c297 189 540 346 540 349 -1 3 -192 219 -426 480
l-424 475 457 450 457 451 -510 373 c-280 206 -512 377 -516 380 -4 4 79 137
184 296 105 160 264 401 353 536 l162 246 -584 263 c-514 232 -583 265 -577
282 3 10 108 280 234 598 125 319 226 580 224 580 -8 0 -1248 271 -1250 273
-1 1 45 281 102 622 57 341 104 626 104 633 0 9 -135 12 -640 12 -352 0 -640
3 -640 8 -18 441 -60 1265 -64 1269 -3 4 -282 -51 -619 -120 -336 -70 -617
-127 -623 -127 -6 0 -82 277 -170 615 -87 338 -164 615 -170 615 -6 0 -267
-112 -580 -250 -313 -137 -573 -250 -579 -250 -5 0 -138 257 -295 571 l-286
570 -269 -194 c-149 -106 -383 -275 -522 -375 l-252 -181 -397 497 c-218 273
-399 498 -402 499 -4 2 -198 -208 -432 -466z"/>
<path d="M9013 16793 l-82 -4 -35 -72 c-51 -108 -76 -200 -76 -277 0 -60 3
-70 27 -95 62 -61 209 -116 638 -240 316 -91 457 -138 615 -204 455 -191 608
-402 500 -693 -156 -424 -657 -852 -1429 -1221 -175 -83 -492 -219 -728 -311
-172 -67 -210 -89 -183 -106 27 -17 140 -30 430 -50 691 -47 1016 -89 1360
-175 374 -94 627 -218 795 -389 90 -92 135 -161 173 -268 23 -64 26 -89 26
-208 1 -110 -3 -151 -22 -221 -67 -254 -225 -547 -442 -819 -46 -58 -170 -192
-276 -298 -106 -106 -188 -195 -181 -196 7 -2 89 -16 182 -30 650 -103 1211
-309 1568 -576 212 -160 332 -322 379 -514 l21 -85 89 77 c339 293 633 481
823 527 231 56 417 16 548 -117 78 -79 120 -151 166 -281 36 -102 36 -102 35
-267 -1 -156 -3 -172 -36 -300 -166 -624 -645 -1266 -1318 -1764 -182 -136
-483 -326 -496 -314 -2 3 8 13 23 23 184 119 650 675 966 1152 228 343 373
619 452 857 84 251 83 404 -4 514 -84 106 -220 132 -388 73 -224 -78 -505
-300 -835 -659 -43 -46 -58 -70 -58 -91 0 -60 -32 -282 -65 -446 -186 -934
-709 -1660 -1489 -2066 l-129 -67 64 -6 c35 -3 181 -15 324 -26 1172 -93 2355
-306 3491 -629 257 -73 667 -201 863 -270 103 -36 148 -48 157 -40 17 14 196
279 286 424 501 807 836 1729 973 2678 52 366 60 490 60 977 0 487 -8 611 -60
977 -38 263 -70 425 -135 688 -484 1961 -1823 3642 -3662 4599 -922 480 -1928
757 -2993 826 -145 9 -710 11 -912 3z"/>
<path d="M7550 16560 c-1073 -278 -2099 -814 -2940 -1536 -1316 -1131 -2163
-2662 -2405 -4347 -52 -366 -60 -490 -60 -977 0 -487 8 -611 60 -977 38 -263
70 -425 135 -688 193 -783 525 -1532 982 -2213 52 -77 73 -102 86 -98 659 200
1520 411 2187 536 l120 23 -24 91 c-22 82 -25 110 -25 286 0 178 2 203 26 290
54 201 129 353 261 530 79 106 258 289 357 365 71 54 70 53 -37 -73 -164 -194
-271 -402 -315 -611 -39 -186 -24 -419 39 -594 23 -64 92 -217 98 -217 1 0
103 16 226 35 382 59 763 106 1159 145 205 19 573 50 614 50 11 0 -22 20 -74
44 -687 314 -1235 880 -1540 1590 -171 399 -263 813 -290 1311 -13 226 -3 304
50 421 169 372 702 691 1475 883 487 120 1018 177 1597 170 l288 -4 54 105
c282 545 154 957 -379 1223 -201 100 -391 157 -810 241 -1059 215 -1695 417
-2038 648 -83 56 -186 162 -217 223 -21 42 -25 64 -25 135 0 75 4 93 33 155
40 85 99 143 207 204 114 65 349 167 610 264 127 48 382 143 568 212 404 150
618 240 827 345 359 182 521 334 523 489 1 170 -184 317 -618 491 -279 113
-460 222 -578 349 -131 143 -158 292 -82 459 14 30 24 56 23 57 -2 1 -68 -15
-148 -35z"/>
<path d="M8935 10789 c-1259 -50 -2240 -426 -2326 -891 -44 -243 193 -497 634
-682 316 -133 733 -233 1187 -286 278 -32 472 -43 800 -43 328 0 522 11 800
43 1029 120 1748 456 1821 853 44 242 -193 496 -634 681 -446 187 -1032 298
-1724 326 -260 10 -279 10 -558 -1z"/>
<path d="M11772 8986 c-159 -110 -395 -220 -662 -311 -1096 -372 -2644 -375
-3749 -6 -192 64 -396 151 -530 225 l-83 46 7 -38 c26 -139 156 -465 267 -667
367 -671 923 -1111 1613 -1275 527 -125 1136 -101 1620 63 320 109 585 276
830 521 343 344 580 789 735 1377 16 60 25 109 22 108 -4 0 -35 -19 -70 -43z"/>
<path d="M8990 6280 c-80 -4 -154 -8 -165 -9 -14 -1 -8 -8 25 -26 65 -33 100
-76 117 -137 12 -48 50 -715 40 -724 -2 -2 -87 146 -189 329 -103 182 -198
353 -213 379 l-26 47 58 42 c32 23 60 44 62 46 3 2 0 8 -5 13 -7 7 -32 -6 -77
-40 -37 -28 -67 -54 -67 -58 0 -4 103 -190 229 -413 213 -379 229 -410 235
-470 5 -43 4 -61 -3 -54 -5 6 -116 199 -246 430 -130 231 -250 443 -266 472
l-30 52 63 47 c35 25 65 48 68 51 8 8 -473 -8 -488 -16 -9 -5 7 -23 50 -56 35
-27 64 -49 65 -49 1 -1 9 -190 18 -421 20 -494 18 -622 -12 -680 -24 -45 -73
-94 -118 -119 -28 -16 -17 -16 205 -10 l235 6 23 -25 24 -25 -49 -6 c-26 -3
-141 -8 -255 -12 -187 -6 -227 -11 -200 -28 10 -6 554 14 561 21 12 9 -84 92
-113 97 -54 10 -123 61 -147 107 -41 81 -56 245 -74 799 l-6 185 30 -51 30
-51 16 -376 c10 -256 20 -393 31 -433 17 -67 53 -127 86 -145 20 -11 20 -9 -5
21 -41 48 -54 88 -66 192 -11 102 -36 667 -29 673 2 3 122 -203 266 -458 l261
-462 85 0 c47 0 87 3 90 5 2 3 -4 221 -15 485 -11 264 -19 523 -16 575 6 140
31 187 132 256 l50 34 -65 -2 c-36 -1 -130 -5 -210 -8z"/>
<path d="M10511 6259 c-186 -36 -368 -215 -439 -432 -115 -347 -24 -724 212
-881 146 -97 383 -122 533 -56 87 38 163 130 202 241 41 120 36 204 -12 197
-18 -2 -25 -17 -42 -83 -54 -207 -159 -305 -326 -305 -99 0 -157 21 -222 80
-100 92 -145 216 -154 425 -15 368 87 647 262 721 46 19 140 18 200 -3 98 -33
185 -154 208 -287 6 -36 14 -66 17 -66 3 0 23 33 45 73 21 39 67 118 103 175
35 57 62 106 59 109 -4 3 -20 0 -38 -6 -53 -18 -86 -13 -205 34 -182 72 -282
88 -403 64z"/>
<path d="M7598 6197 c-93 -11 -168 -23 -168 -26 0 -3 28 -25 63 -49 34 -23 72
-50 84 -60 21 -16 25 -40 64 -387 41 -368 51 -545 36 -618 -11 -51 -66 -109
-130 -138 -71 -32 -241 -34 -301 -5 -51 26 -91 91 -111 180 -11 54 -73 551
-108 872 -1 14 20 49 56 95 31 39 55 74 53 76 -4 4 -437 -44 -460 -51 -6 -1
25 -27 67 -57 42 -30 77 -60 77 -68 1 -67 95 -796 110 -855 40 -156 88 -224
192 -271 55 -25 78 -29 178 -33 258 -9 432 73 476 225 23 78 15 197 -40 663
l-44 365 81 83 82 82 -45 -1 c-25 -1 -120 -11 -212 -22z"/>
<path d="M9244 6191 c-22 -10 -50 -31 -62 -45 -44 -57 -46 -102 -23 -681 12
-297 21 -550 21 -562 0 -20 -5 -23 -39 -23 -67 0 -161 -13 -161 -21 0 -5 52
-9 116 -9 l116 0 -6 108 c-15 268 -38 931 -34 1026 4 121 16 148 86 181 40 20
63 45 39 45 -7 0 -30 -9 -53 -19z"/>
<path d="M7817 6106 l-67 -74 42 -344 c34 -280 42 -376 42 -523 l1 -180 -29
-53 c-73 -131 -216 -194 -446 -194 -96 -1 -127 3 -187 24 -40 13 -73 23 -73
21 0 -9 90 -46 147 -59 134 -32 348 -3 460 63 54 31 110 93 137 152 35 77 29
297 -22 720 -23 190 -42 351 -42 358 0 7 28 42 62 78 38 41 58 69 52 75 -6 6
-35 -18 -77 -64z"/>
<path d="M10569 6106 c-111 -39 -174 -144 -216 -355 -12 -61 -17 -135 -17
-256 1 -194 18 -281 77 -389 33 -61 103 -126 134 -126 9 0 -2 13 -24 29 -112
81 -174 294 -159 552 13 223 58 378 134 460 83 89 192 97 305 23 l52 -35 -46
44 c-68 64 -156 83 -240 53z"/>
<path d="M11152 6028 c-87 -133 -161 -262 -156 -270 11 -18 24 -5 60 60 20 37
70 117 110 179 65 101 75 123 54 123 -4 0 -35 -42 -68 -92z"/>
<path d="M7132 6048 l-50 -63 48 -415 c27 -228 54 -437 61 -465 23 -97 62
-150 132 -180 20 -8 37 -14 37 -12 0 2 -22 20 -49 40 -81 62 -92 103 -145 568
-25 217 -48 408 -51 425 -5 27 2 41 41 89 30 37 43 60 37 66 -7 7 -28 -12 -61
-53z"/>
<path d="M11825 6090 c-199 -36 -367 -192 -440 -409 -78 -235 -73 -496 11
-652 118 -217 349 -336 586 -301 110 16 196 60 278 142 103 104 156 212 195
395 23 109 24 307 1 400 -52 214 -195 368 -386 413 -67 16 -188 22 -245 12z
m258 -112 c59 -26 126 -98 150 -164 49 -132 24 -452 -54 -691 -86 -261 -254
-366 -451 -281 -68 29 -131 102 -160 186 -20 58 -23 86 -22 207 1 328 108 638
251 726 84 52 189 58 286 17z"/>
<path d="M11910 5931 c-133 -43 -215 -172 -269 -423 -61 -285 -43 -492 55
-607 20 -23 38 -40 40 -38 3 2 -11 27 -30 56 -53 79 -70 172 -63 345 8 196 55
392 120 506 77 135 198 175 333 111 34 -16 65 -34 68 -40 4 -6 12 -11 18 -11
22 0 -47 63 -89 81 -47 22 -146 32 -183 20z"/>
<path d="M6310 5992 c-44 -27 -47 -27 -240 -28 -154 0 -209 -4 -260 -18 -145
-40 -258 -131 -300 -244 -32 -84 -25 -203 16 -292 70 -149 163 -193 430 -205
269 -11 352 -33 422 -109 46 -50 66 -102 66 -171 0 -117 -94 -207 -253 -241
-211 -44 -371 27 -462 207 -32 64 -48 67 -49 9 0 -38 -46 -211 -76 -285 -15
-36 -24 -68 -21 -71 3 -3 22 6 44 20 58 38 105 44 320 38 233 -6 310 4 413 54
88 42 165 117 206 199 26 55 29 69 29 165 0 95 -3 111 -29 167 -33 72 -104
144 -170 173 -73 33 -165 49 -341 60 -259 15 -335 46 -380 152 -66 158 89 322
289 306 115 -10 204 -71 261 -180 18 -34 32 -52 36 -45 4 7 19 68 34 137 15
69 36 147 47 173 12 26 19 49 17 51 -2 3 -24 -8 -49 -22z"/>
<path d="M6406 5982 c-7 -12 -96 -325 -96 -339 0 -7 6 -13 13 -13 7 0 24 44
41 113 16 61 39 142 52 180 18 53 20 67 9 67 -8 0 -16 -4 -19 -8z"/>
<path d="M12388 5926 c119 -131 174 -337 151 -566 -14 -148 -34 -220 -91 -339
-42 -88 -62 -116 -126 -180 -133 -132 -246 -176 -426 -169 -127 6 -219 32
-301 85 l-50 33 39 -35 c85 -76 202 -115 347 -115 167 0 279 48 405 174 69 69
89 96 132 186 69 144 92 242 99 415 5 120 2 152 -16 229 -12 49 -36 118 -53
154 -33 66 -104 154 -142 174 -11 6 3 -15 32 -46z"/>
<path d="M12961 5840 l51 -80 -53 -215 -54 -215 -56 0 c-64 0 -130 -29 -163
-73 -25 -34 -18 -41 22 -21 42 20 93 28 136 20 30 -6 36 -11 36 -31 0 -24 -3
-25 -55 -25 -67 0 -135 -24 -117 -42 9 -9 18 -9 37 0 37 17 115 16 115 -2 0
-12 -82 -359 -96 -409 -4 -11 -41 -34 -95 -59 -49 -22 -89 -44 -89 -48 0 -7
462 -121 468 -115 2 2 -16 38 -40 79 l-45 77 61 249 c34 137 64 251 68 255 3
3 56 -6 117 -20 l110 -27 62 -99 c34 -55 65 -97 69 -92 8 9 103 393 98 398 -2
1 -47 -26 -101 -61 l-98 -64 -67 16 c-37 9 -71 20 -76 24 -7 7 34 200 75 353
12 45 21 46 135 16 109 -28 180 -62 222 -106 33 -35 34 -36 19 -8 -34 66 -103
105 -246 141 -151 37 -132 55 -188 -178 -42 -175 -51 -203 -68 -206 -46 -6
-46 6 11 238 30 124 56 230 58 237 6 15 248 -48 333 -87 75 -34 111 -79 143
-180 13 -39 26 -67 29 -63 4 4 26 34 50 65 24 32 74 87 112 123 38 36 67 65
65 65 -2 0 -234 56 -516 125 -281 69 -515 125 -520 125 -5 0 13 -36 41 -80z"/>
<path d="M5866 5816 c-90 -34 -136 -92 -136 -173 0 -79 32 -129 107 -167 47
-23 77 -20 32 4 -121 64 -150 185 -63 266 46 44 93 57 178 52 53 -4 85 -12
126 -34 76 -40 78 -40 50 -9 -14 15 -43 36 -65 48 -52 27 -174 33 -229 13z"/>
<path d="M4003 5478 c-282 -84 -510 -154 -507 -157 3 -3 42 -22 87 -41 l82
-36 62 -209 c34 -116 62 -211 63 -212 0 -2 -21 -14 -47 -27 -27 -13 -56 -32
-65 -43 -23 -25 -48 -86 -48 -117 0 -24 2 -24 43 18 38 37 130 87 141 75 2 -2
6 -13 10 -24 5 -16 -2 -25 -31 -40 -49 -26 -114 -85 -107 -96 3 -5 24 6 47 25
23 18 56 41 73 49 l31 16 62 -212 c34 -117 64 -219 67 -228 2 -8 -20 -48 -51
-89 -30 -40 -54 -75 -52 -77 2 -2 989 285 1100 320 5 1 -28 26 -72 55 -76 50
-159 135 -184 190 -6 12 -13 22 -17 22 -4 0 -14 -34 -24 -75 -29 -135 -75
-193 -191 -245 -89 -40 -196 -73 -204 -64 -9 10 -141 457 -141 477 0 7 44 25
108 44 76 22 102 33 89 38 -16 7 -189 -35 -223 -54 -7 -4 15 -90 62 -251 40
-135 73 -251 74 -258 0 -12 -48 -37 -56 -29 -8 8 -164 551 -161 560 1 5 61 27
132 48 147 43 123 47 239 -38 33 -23 61 -41 63 -39 4 4 -105 384 -115 400 -3
5 -22 -38 -42 -95 l-37 -103 -92 -27 c-65 -19 -94 -24 -97 -16 -12 33 -104
353 -104 363 0 11 176 69 245 80 30 4 61 -1 113 -18 76 -26 80 -14 7 21 -73
34 -167 26 -332 -31 -37 -13 -63 -27 -63 -36 0 -8 25 -99 56 -204 31 -104 54
-191 51 -194 -2 -3 -17 -6 -33 -7 -26 -2 -29 2 -50 73 -12 41 -42 143 -66 227
l-45 152 91 30 c185 61 293 75 362 46 19 -8 61 -41 93 -73 l59 -58 11 83 c10
69 37 172 66 246 5 11 3 17 -6 16 -8 0 -245 -68 -526 -151z"/>
<path d="M14170 5605 c0 -4 19 -43 42 -87 l42 -81 -69 -207 -69 -208 -66 1
c-55 1 -74 -4 -113 -26 -26 -15 -52 -37 -58 -49 -10 -19 -9 -20 12 -14 68 21
105 26 133 20 50 -11 65 -22 59 -45 -5 -18 -11 -20 -53 -14 -52 7 -133 -11
-127 -29 2 -6 13 -10 23 -8 65 10 111 12 123 4 11 -8 1 -48 -54 -213 -37 -112
-72 -208 -77 -214 -5 -5 -52 -26 -104 -46 l-95 -35 234 -77 c129 -42 237 -77
240 -77 3 0 -12 37 -33 83 l-40 82 82 248 c46 136 87 247 93 247 5 0 57 -14
113 -32 l104 -32 28 -55 c16 -31 42 -80 58 -110 l30 -53 66 198 c36 109 64
199 62 202 -2 2 -47 -19 -99 -47 -51 -28 -103 -51 -113 -51 -37 0 -145 42
-141 54 3 7 30 90 61 186 31 95 59 177 62 181 7 11 137 -27 219 -65 48 -22 83
-47 108 -77 21 -24 35 -35 31 -24 -25 70 -120 132 -275 179 -48 14 -89 26 -92
26 -3 0 -36 -92 -74 -205 -62 -187 -69 -204 -88 -199 -11 4 -24 10 -29 15 -7
7 89 326 135 446 l8 22 132 -45 c151 -51 195 -72 243 -115 38 -33 70 -104 81
-183 l8 -48 68 75 c38 42 97 96 130 121 58 44 60 46 37 55 -13 5 -240 80 -503
166 -264 87 -483 159 -487 162 -5 2 -8 1 -8 -2z"/>
<path d="M13940 5557 c-65 -51 -154 -147 -176 -189 -25 -47 -5 -52 28 -6 41
59 123 142 181 185 26 19 47 39 47 44 0 19 -27 7 -80 -34z"/>
<path d="M4562 5498 c-38 -121 -58 -226 -44 -240 6 -6 14 12 21 58 7 37 25
109 42 159 31 100 34 115 19 115 -5 0 -22 -42 -38 -92z"/>
<path d="M6552 5302 c26 -29 60 -79 75 -110 26 -52 28 -66 28 -172 0 -111 -1
-118 -34 -184 -47 -97 -137 -186 -234 -232 -110 -52 -203 -65 -442 -62 -201 3
-257 -4 -299 -35 -11 -8 -16 -19 -12 -25 4 -7 22 -4 54 11 44 21 62 22 292 23
266 1 304 6 425 63 74 34 166 117 216 193 119 185 80 444 -85 560 -26 19 -23
13 16 -30z"/>
<path d="M13545 5103 c-55 -230 -54 -225 -39 -230 6 -2 30 78 58 194 53 221
55 234 41 240 -6 2 -32 -84 -60 -204z"/>
<path d="M11105 5243 c-47 -230 -110 -330 -255 -403 -145 -73 -344 -63 -507
26 -35 18 -63 32 -63 30 0 -2 23 -18 51 -36 156 -101 346 -122 516 -59 138 52
264 242 285 433 4 38 -19 46 -27 9z"/>
<path d="M2970 5150 c-113 -44 -207 -80 -210 -80 -3 -1 31 -16 75 -33 l80 -33
82 -220 c46 -120 83 -224 83 -229 0 -24 -333 -147 -349 -129 -11 11 -151 382
-151 400 0 6 13 42 30 78 23 52 26 66 14 66 -14 0 -74 -117 -74 -145 0 -7 34
-103 76 -214 42 -111 74 -204 72 -206 -1 -2 -14 -5 -28 -7 -23 -3 -28 7 -104
210 l-80 213 28 57 c16 31 35 72 42 89 l14 33 -47 -19 c-27 -10 -124 -47 -218
-81 -93 -35 -174 -66 -178 -70 -5 -4 28 -22 73 -40 44 -18 85 -40 90 -50 5 -9
43 -108 85 -220 l76 -203 -39 -41 c-22 -23 -47 -56 -56 -74 -22 -42 -33 -132
-17 -132 6 0 11 6 11 13 0 49 130 157 144 121 3 -9 6 -17 6 -18 0 -2 -17 -15
-37 -28 -41 -27 -90 -102 -74 -113 6 -3 19 12 30 33 20 39 80 88 92 74 3 -4
41 -101 83 -215 l78 -208 -42 -79 c-22 -44 -39 -80 -37 -80 7 0 430 160 434
164 2 2 -32 16 -76 31 l-79 28 -85 226 c-47 124 -89 234 -92 243 -4 11 -2 19
6 22 113 33 283 93 344 122 62 29 79 34 86 23 20 -33 -85 -91 -258 -144 -73
-23 -107 -38 -105 -47 2 -10 120 -324 158 -421 3 -10 47 -39 97 -64 109 -54
127 -38 -170 -149 -155 -57 -208 -81 -196 -87 11 -7 89 18 264 83 137 51 249
96 249 100 0 3 -49 32 -109 64 l-109 59 -77 204 c-42 112 -74 207 -71 210 3 3
50 20 104 38 54 17 129 48 167 68 51 27 71 34 77 24 4 -6 40 -99 80 -206 l72
-194 -42 -78 c-24 -44 -39 -79 -35 -79 14 0 423 155 423 160 0 3 -33 18 -73
33 l-72 28 -193 513 -194 513 25 49 c44 87 57 124 44 123 -7 0 -104 -36 -217
-79z"/>
<path d="M5630 5221 c0 -17 60 -60 98 -71 39 -10 163 -23 397 -40 122 -9 147
-13 198 -38 60 -30 71 -29 35 5 -51 46 -106 57 -358 73 -208 12 -272 24 -322
56 -41 26 -48 28 -48 15z"/>
<path d="M3210 5140 c-31 -63 -32 -72 -22 -107 7 -21 92 -252 191 -513 l178
-475 93 -51 c50 -29 88 -54 83 -57 -5 -3 -107 -42 -228 -88 -121 -45 -222 -84
-225 -86 -2 -2 1 -8 8 -12 8 -5 114 30 268 87 l254 96 -47 26 c-27 15 -79 44
-117 66 l-69 39 -187 499 -187 499 30 64 c18 40 26 68 20 74 -6 6 -22 -17 -43
-61z"/>
<path d="M15164 5161 c-79 -53 -144 -110 -178 -160 -38 -54 -23 -75 16 -22 33
45 123 123 198 172 28 18 50 36 50 41 0 17 -27 7 -86 -31z"/>
<path d="M15434 5106 l48 -88 -82 -196 c-46 -109 -86 -201 -90 -206 -5 -4 -30
-3 -57 2 -29 7 -64 8 -87 2 -35 -8 -116 -56 -116 -69 0 -3 33 -5 74 -3 71 3
146 -15 146 -35 -1 -27 -18 -33 -78 -25 -64 9 -122 5 -122 -8 0 -4 34 -10 76
-13 42 -3 80 -9 85 -14 8 -8 -151 -402 -172 -429 -5 -6 -45 -19 -89 -29 -45
-10 -83 -22 -85 -25 -5 -8 1044 -454 1051 -447 2 2 -5 30 -16 63 -30 87 -42
179 -32 252 5 34 7 62 5 62 -3 0 -31 -20 -63 -45 -129 -99 -199 -108 -378 -46
-63 21 -117 43 -122 47 -7 8 175 452 192 469 3 3 50 -12 103 -35 54 -22 99
-39 101 -37 10 10 -25 32 -115 71 l-102 45 -14 -32 c-92 -220 -196 -461 -199
-464 -6 -6 -56 20 -56 29 0 5 50 128 111 273 l112 264 31 -13 c17 -7 77 -33
132 -56 l102 -43 27 -104 c15 -57 29 -102 30 -101 8 9 165 391 163 394 -2 2
-45 -21 -95 -51 l-90 -54 -84 35 c-46 19 -85 37 -88 39 -4 5 138 345 150 359
9 11 184 -57 238 -92 21 -14 53 -50 72 -80 39 -64 52 -52 17 16 -15 28 -43 60
-73 81 -54 39 -256 125 -266 113 -4 -4 -42 -90 -85 -192 -42 -102 -79 -187
-80 -189 -3 -4 -64 19 -64 24 0 4 180 427 185 435 10 16 254 -88 331 -140 58
-41 90 -107 100 -207 l7 -73 72 68 c39 37 102 84 138 106 37 21 67 42 67 46 0
5 -874 379 -999 428 -8 3 7 -34 33 -82z"/>
<path d="M4457 4943 c36 -120 66 -220 68 -221 2 -2 8 -2 13 -1 5 2 -12 76 -38
164 -26 88 -55 186 -64 218 -9 32 -22 57 -30 57 -9 0 5 -62 51 -217z"/>
<path d="M13077 4882 l-58 -238 50 -104 c27 -58 48 -106 46 -108 -2 -2 -124
26 -271 62 -147 37 -269 64 -272 62 -2 -3 -1 -9 2 -14 6 -10 585 -157 591
-150 1 2 -25 61 -58 131 l-61 128 53 217 c29 119 54 218 54 218 1 1 45 -9 97
-22 114 -28 119 -28 99 -8 -14 13 -77 32 -189 57 -25 6 -25 6 -83 -231z"/>
<path d="M14771 4854 c-17 -55 -48 -152 -70 -216 -29 -87 -36 -119 -28 -127
17 -13 156 414 140 430 -8 8 -20 -15 -42 -87z"/>
<path d="M5790 4907 c0 -20 53 -98 91 -134 36 -34 103 -67 157 -77 47 -8 39 0
-18 19 -62 21 -159 107 -185 164 -17 39 -45 56 -45 28z"/>
<path d="M14321 4767 c-5 -12 -39 -117 -76 -234 l-68 -212 41 -107 c23 -59 40
-109 39 -111 -2 -1 -118 36 -258 82 -140 47 -260 84 -266 83 -7 -2 -9 -8 -5
-14 8 -13 561 -198 569 -190 3 3 -17 63 -44 134 l-50 129 67 207 c38 114 70
210 73 213 3 3 47 -9 98 -26 51 -17 95 -28 98 -26 12 12 -30 34 -117 63 l-93
31 -8 -22z"/>
<path d="M1351 4475 c-311 -146 -566 -267 -568 -268 -2 -2 18 -18 43 -36 25
-18 85 -71 135 -118 49 -47 92 -84 94 -81 2 2 -2 26 -10 53 -20 65 -19 101 6
151 24 51 66 85 162 129 66 31 73 33 85 18 6 -9 12 -20 12 -24 0 -5 -32 -24
-70 -45 -80 -42 -126 -89 -135 -138 -9 -48 12 -146 32 -146 11 0 13 5 8 18 -5
9 -10 44 -13 78 -4 57 -2 63 27 96 37 43 156 108 169 93 5 -6 106 -218 225
-473 l217 -463 -40 -85 c-22 -47 -35 -84 -31 -82 58 21 409 193 406 198 -2 4
-33 15 -69 24 -36 10 -69 23 -75 30 -20 25 -480 1019 -475 1027 10 17 123 69
173 80 73 15 119 -1 190 -66 32 -30 60 -55 62 -55 2 0 4 79 4 175 1 96 1 175
0 175 0 -1 -254 -120 -564 -265z"/>
<path d="M1976 4698 c-22 -80 -14 -327 11 -335 9 -3 11 28 10 124 -1 70 0 150
3 177 5 52 -12 77 -24 34z"/>
<path d="M16361 4659 c-113 -70 -211 -152 -211 -177 0 -8 20 4 48 28 26 23 89
70 140 103 50 33 92 67 92 74 0 16 6 19 -69 -28z"/>
<path d="M4804 4589 c43 -50 127 -118 195 -156 62 -35 63 -37 57 -71 -3 -19
-7 -37 -10 -39 -2 -2 -249 -76 -547 -164 -299 -88 -545 -162 -548 -164 -2 -3
3 -7 12 -11 25 -9 1097 307 1108 327 4 9 11 34 14 55 l6 39 -75 44 c-41 24
-106 73 -145 108 -72 66 -111 85 -67 32z"/>
<path d="M16743 4598 c2 -7 20 -46 38 -87 l33 -75 -98 -190 c-54 -105 -101
-194 -105 -198 -3 -3 -33 1 -66 9 -71 18 -127 8 -172 -32 l-28 -24 61 -1 c64
0 120 -14 142 -35 11 -10 11 -18 3 -33 -10 -19 -13 -19 -57 -6 -51 15 -134 19
-134 6 0 -4 35 -13 77 -20 42 -6 80 -15 83 -19 4 -5 -42 -100 -101 -213 l-108
-205 -85 -15 c-46 -8 -87 -18 -91 -21 -3 -4 222 -126 501 -273 278 -147 508
-266 509 -264 2 2 -6 37 -17 78 -15 59 -18 94 -14 165 3 50 8 103 12 118 l7
28 -58 -36 c-131 -84 -200 -94 -327 -49 -93 34 -188 81 -188 94 0 6 52 110
116 230 l116 220 96 -50 c92 -47 111 -53 98 -31 -11 18 -198 113 -206 104 -5
-4 -61 -109 -126 -233 -64 -124 -119 -227 -121 -229 -5 -7 -53 22 -53 32 0 9
228 448 256 494 l14 23 118 -62 c64 -33 120 -64 125 -68 4 -3 16 -50 26 -103
10 -54 20 -99 22 -101 2 -3 48 79 102 181 54 102 96 188 93 190 -2 2 -46 -17
-97 -42 l-93 -47 -88 43 c-48 24 -88 44 -88 46 0 3 181 346 185 351 7 8 207
-101 240 -129 20 -18 50 -57 66 -88 26 -49 29 -52 25 -23 -10 58 -38 103 -90
144 -50 40 -214 128 -238 128 -14 0 -26 -21 -142 -242 l-67 -128 -30 16 -30
15 44 82 c24 45 74 139 111 210 37 70 73 127 79 127 25 0 235 -112 289 -155
76 -59 90 -89 97 -203 l6 -92 72 54 c40 30 108 72 152 94 l80 40 -486 256
c-267 141 -488 256 -490 256 -3 0 -3 -6 0 -12z"/>
<path d="M15907 4286 c-83 -197 -96 -236 -79 -236 14 0 186 420 175 431 -6 6
-39 -60 -96 -195z"/>
<path d="M1690 4463 c-58 -21 -130 -58 -130 -67 0 -6 102 -230 227 -497 l228
-486 98 -43 c54 -24 96 -44 95 -45 -2 -2 -102 -49 -223 -105 -121 -56 -222
-104 -224 -106 -2 -2 3 -6 11 -9 9 -4 123 44 258 107 l243 113 -118 55 -117
55 -224 474 c-123 261 -224 476 -224 478 0 12 114 54 163 59 38 4 54 10 45 15
-14 9 -84 11 -108 2z"/>
<path d="M8860 4359 c-945 -39 -1852 -149 -2800 -339 -357 -71 -750 -161 -750
-170 0 -4 53 -41 118 -82 1070 -683 2262 -1071 3560 -1158 336 -22 879 -11
1247 26 925 92 1856 370 2683 800 276 144 670 381 655 395 -5 3 -116 34 -248
67 -1060 269 -2092 417 -3225 462 -278 11 -963 11 -1240 -1z"/>
<path d="M17635 3987 c-125 -66 -234 -147 -197 -147 4 0 30 16 57 36 28 19 92
58 143 86 50 27 92 54 92 59 0 15 -10 11 -95 -34z"/>
<path d="M14910 3856 c0 -8 6 -16 13 -19 6 -3 241 -102 521 -221 280 -119 516
-216 525 -216 9 0 31 13 50 29 l34 28 -31 90 c-17 50 -36 129 -43 174 -17 114
-33 128 -26 22 4 -52 18 -118 38 -179 l33 -97 -29 -23 c-16 -13 -31 -21 -34
-20 -5 3 -909 386 -1013 429 -31 13 -38 13 -38 3z"/>
<path d="M17252 3808 c-63 -113 -182 -346 -182 -357 0 -26 17 -7 51 57 135
253 178 341 170 346 -5 4 -23 -17 -39 -46z"/>
<path d="M4630 3676 c-935 -268 -1773 -573 -2575 -936 -239 -108 -750 -369
-724 -370 3 0 66 29 140 64 595 283 1497 618 2329 864 160 47 165 48 168 28 1
-12 9 -158 16 -324 8 -167 17 -306 20 -310 4 -3 282 51 619 121 336 70 617
127 623 127 6 0 82 -277 170 -615 87 -338 164 -615 170 -615 6 0 267 112 580
250 313 137 573 250 579 250 5 0 138 -257 295 -571 l286 -570 269 194 c149
106 383 275 522 375 l252 181 397 -497 c218 -273 399 -498 402 -499 4 -2 198
208 432 466 234 258 428 470 432 470 4 1 225 -177 490 -395 266 -219 488 -401
494 -405 6 -5 124 188 329 537 175 300 324 548 330 550 6 3 262 -126 570 -286
308 -159 562 -286 566 -282 4 4 96 276 205 604 109 329 203 598 209 598 5 0
283 -76 617 -168 l608 -168 5 30 c3 17 28 238 56 491 27 253 51 460 52 462 6
5 664 -220 917 -315 632 -237 1298 -530 1835 -808 102 -53 188 -94 191 -91 3
3 -79 56 -183 117 -613 365 -1331 727 -1953 985 -385 159 -887 343 -1227 450
l-183 57 -162 -110 c-1146 -770 -2469 -1215 -3868 -1302 -212 -13 -728 -13
-940 0 -1409 87 -2733 535 -3888 1316 -101 68 -191 124 -200 123 -9 0 -132
-33 -272 -73z"/>
<path d="M16150 3318 c1 -10 785 -431 981 -528 28 -13 33 -12 74 10 25 14 45
28 45 32 0 5 -9 41 -21 81 -11 39 -23 118 -26 175 -6 103 -17 135 -29 87 -9
-37 3 -145 27 -245 l21 -84 -28 -22 -27 -23 -60 30 c-32 17 -259 136 -504 265
-244 128 -446 234 -449 234 -2 0 -4 -6 -4 -12z"/>
</g>
</svg>
